<svg width="56" height="56" viewBox="0 0 56 56" fill="none" xmlns="http://www.w3.org/2000/svg">
<rect opacity="0.1" width="56" height="56" rx="18" fill="#6374C3"/>
<path fill-rule="evenodd" clip-rule="evenodd" d="M27.7447 15.2023C27.6866 15.3414 25.9297 18.2916 23.8405 21.7582C21.7513 25.2247 20.0245 28.1064 20.0032 28.162C19.9754 28.2344 21.1104 28.9405 23.983 30.6378L28.0017 33.0123L32.0193 30.6365C34.9057 28.9296 36.026 28.2319 35.9979 28.1588C35.8528 27.7804 28.0402 14.9492 27.955 14.9492C27.8975 14.9492 27.8029 15.0631 27.7447 15.2023ZM20.0127 29.8698C20.1675 30.1345 27.9685 41.1105 28.0012 41.1095C28.0551 41.1078 36.0308 29.8372 35.9999 29.8063C35.9708 29.7773 28.5158 34.1681 28.2048 34.3974L28.0142 34.5381L24.1543 32.2592C22.0313 31.0058 20.216 29.9297 20.1202 29.868C19.9614 29.7657 19.9519 29.7658 20.0127 29.8698Z" fill="#6374C4"/>
</svg>
