<svg width="56" height="56" viewBox="0 0 56 56" fill="none" xmlns="http://www.w3.org/2000/svg">
<rect opacity="0.1" width="56" height="56" rx="18" fill="#F7543E"/>
<g clip-path="url(#clip0_492_2764)">
<path d="M35.9879 28.591C35.4303 27.87 34.5889 27.3748 33.4638 27.1056C34.8966 26.3748 35.5262 25.1343 35.3533 23.3841C35.2956 22.7495 35.1202 22.1994 34.8267 21.7332C34.5331 21.2669 34.1369 20.892 33.6366 20.6083C33.1366 20.3244 32.5929 20.1082 32.0067 19.9592C31.4202 19.8102 30.747 19.7019 29.9873 19.6347V16H27.7663V19.5337C27.3817 19.5337 26.7952 19.5433 26.0068 19.5626V16H23.7855V19.6347C23.4681 19.6444 23.0018 19.6493 22.3865 19.6493L19.3288 19.6347V22.0002H20.9297C21.6605 22.0002 22.0884 22.3272 22.2133 22.9809V27.1205C22.3096 27.1205 22.3865 27.1255 22.4442 27.1351H22.2133V32.933C22.1365 33.4233 21.8577 33.6687 21.3769 33.6687H19.7761L19.3289 36.3082H22.2136C22.3963 36.3082 22.6606 36.3106 23.0069 36.315C23.353 36.3198 23.6125 36.3223 23.7856 36.3223V40.0002H26.0073V36.3655C26.411 36.3754 26.9975 36.3801 27.7668 36.3801V40.0002H29.9878V36.3223C30.7765 36.2839 31.476 36.2121 32.0863 36.106C32.6969 35.9999 33.2812 35.8343 33.8388 35.6081C34.3963 35.3823 34.8626 35.1009 35.2375 34.7643C35.6127 34.4281 35.9225 34 36.1681 33.4806C36.4129 32.9613 36.5694 32.3603 36.6365 31.6775C36.762 30.3413 36.5455 29.3123 35.9879 28.591ZM26.05 22.1584C26.1174 22.1584 26.3073 22.156 26.6198 22.1511C26.9324 22.1462 27.1919 22.1414 27.3987 22.1366C27.6054 22.1318 27.8843 22.1439 28.2354 22.1727C28.5864 22.2015 28.882 22.2401 29.1223 22.2881C29.3626 22.3361 29.6273 22.4154 29.9155 22.526C30.2042 22.6365 30.4348 22.7712 30.6077 22.9298C30.7809 23.0884 30.9275 23.2905 31.0475 23.5357C31.1678 23.7809 31.228 24.0621 31.228 24.3793C31.228 24.6486 31.1848 24.8939 31.0983 25.1151C31.012 25.3363 30.8819 25.5214 30.709 25.6704C30.5361 25.8195 30.3579 25.9495 30.1752 26.0599C29.9926 26.1704 29.7592 26.2594 29.4757 26.3267C29.1922 26.394 28.9446 26.4469 28.7332 26.4853C28.5216 26.5238 28.2572 26.5503 27.9399 26.5647C27.6225 26.579 27.382 26.5888 27.2186 26.5936C27.0551 26.5983 26.8316 26.5983 26.5478 26.5936C26.264 26.5888 26.0984 26.5863 26.0502 26.5863V22.1584H26.05V22.1584ZM32.1153 31.9806C32.0237 32.2018 31.9061 32.3942 31.7619 32.5578C31.6176 32.721 31.4276 32.8654 31.1921 32.9902C30.9567 33.1154 30.7281 33.2162 30.5071 33.2931C30.2858 33.3704 30.0189 33.4373 29.7067 33.4952C29.3938 33.5529 29.1199 33.5936 28.8841 33.6178C28.6486 33.6419 28.3675 33.661 28.0405 33.6755C27.7136 33.6897 27.4587 33.697 27.2761 33.697C27.0933 33.697 26.8625 33.6944 26.5836 33.6897C26.3046 33.6852 26.1269 33.6828 26.0499 33.6828V28.8075C26.1268 28.8075 26.3552 28.8028 26.7351 28.793C27.115 28.7833 27.4249 28.7788 27.6653 28.7788C27.9057 28.7788 28.2376 28.793 28.6608 28.822C29.0837 28.8507 29.4395 28.8938 29.7282 28.9515C30.0165 29.0093 30.3312 29.0981 30.6728 29.2184C31.0141 29.3385 31.2907 29.4851 31.5023 29.6582C31.7138 29.8316 31.8916 30.0524 32.0358 30.3217C32.1803 30.5909 32.2524 30.8986 32.2524 31.2449C32.2524 31.5144 32.2068 31.7592 32.1153 31.9806Z" fill="#F6543E"/>
</g>
<defs>
<clipPath id="clip0_492_2764">
<rect width="24" height="24" fill="white" transform="translate(16 16)"/>
</clipPath>
</defs>
</svg>
