<svg width="56" height="56" viewBox="0 0 56 56" fill="none" xmlns="http://www.w3.org/2000/svg">
<rect opacity="0.1" width="56" height="56" rx="18" fill="#638FFE"/>
<path d="M35.2224 30.6666C34.4192 30.2261 33.5452 30.0221 32.6845 30.0288L32.6918 30.0247C31.511 30.0382 30.5423 29.1198 30.5284 27.9737C30.5148 26.8428 31.4349 25.9135 32.5927 25.8749V25.8743L32.5905 25.8733C33.4664 25.869 34.3525 25.6463 35.1598 25.1804C37.5738 23.7871 38.3674 20.758 36.9324 18.4146C35.497 16.0711 32.3767 15.3008 29.9627 16.694C27.5487 18.0872 26.7551 21.1164 28.1903 23.4598C28.788 24.4363 28.4576 25.6983 27.4518 26.2789C26.4603 26.8511 25.1835 26.5471 24.5745 25.6034L24.574 25.6036V25.6063C24.1351 24.8706 23.4956 24.2351 22.6782 23.7868C20.2332 22.4457 17.1309 23.2826 15.7495 25.6565C14.3681 28.0299 15.2306 31.0414 17.6757 32.3824C20.1209 33.7235 23.2228 32.8865 24.6043 30.5127C24.6127 30.4984 24.6201 30.4836 24.6282 30.4692V30.4727L24.6288 30.4729C25.2156 29.5147 26.4866 29.1827 27.4912 29.7337C28.5101 30.2926 28.8692 31.5472 28.2937 32.5361C26.9121 34.91 27.7747 37.9213 30.2197 39.2621C32.6648 40.6033 35.7671 39.7662 37.1485 37.3924C38.5297 35.0189 37.6675 32.0077 35.2224 30.6666Z" fill="#638FFE"/>
</svg>
